<svg width="543" height="463" viewBox="0 0 543 463" fill="none" xmlns="http://www.w3.org/2000/svg">
<g clip-path="url(#clip0_507_7)">
<path d="M252.999 432.535L270.6 427.35L265.464 445.001L270.6 462.602L252.999 457.466L235.348 462.602L240.533 445.001L235.348 427.35L252.999 432.535Z" fill="black" stroke="white" stroke-miterlimit="10"/>
</g>
<g clip-path="url(#clip1_507_7)">
<path d="M66.9473 345.51L98.4233 362.66L66.9473 379.947L49.7285 411.354L32.5097 379.947L1.03373 362.66L32.5097 345.51L49.7285 313.965L66.9473 345.51Z" fill="black" stroke="white" stroke-miterlimit="10"/>
</g>
<circle cx="73.5" cy="104.5" r="15.5" fill="#B9FF66"/>
<circle cx="363" cy="435" r="10" fill="#B9FF66"/>
<circle cx="23.5" cy="64.5" r="23.5" fill="black"/>
<path d="M247.973 383.591C241.669 385.745 234.465 381.476 231.959 374.072L192.96 259.811L215.748 252.016L254.786 366.434C257.292 373.759 254.238 381.437 247.973 383.591Z" fill="black"/>
<path d="M244.566 385.001C242.726 385.001 240.846 384.57 239.045 383.67C235.404 381.868 232.506 378.499 231.097 374.347L192.098 260.085C191.942 259.654 192.176 259.145 192.646 258.988L215.435 251.193C215.67 251.115 215.905 251.115 216.1 251.232C216.296 251.35 216.453 251.507 216.531 251.742L255.569 366.16C258.192 373.916 254.903 382.103 248.208 384.414C247.072 384.806 245.819 385.001 244.566 385.001ZM194.056 260.359L232.78 373.798C234.033 377.52 236.618 380.575 239.828 382.142C242.413 383.395 245.193 383.63 247.699 382.769C253.494 380.771 256.313 373.563 253.963 366.709L215.2 253.113L194.056 260.359Z" fill="black"/>
<path d="M211.715 153.383L137.985 205.989L109.284 235.798L98.0078 255.737L97.9686 255.893C95.7368 259.34 97.0289 267.292 101.218 275.4C105.33 283.391 111.125 288.954 115.197 289.267L115.079 289.345L136.732 291.695L177.258 285.232L263.282 254.444L370.215 272.776L370.959 272.815C344.098 267.801 307.841 231.881 281.489 181.077C255.177 130.311 246.798 80.133 258.348 55.377H258.309L212.302 152.129L211.715 153.383Z" fill="#B9FF66"/>
<path d="M388.73 270.604C415.158 256.874 410.047 194.63 377.316 131.578C344.585 68.5261 296.627 28.5427 270.2 42.2726C243.772 56.0025 248.883 118.247 281.614 181.299C314.345 244.351 362.303 284.334 388.73 270.604Z" fill="white"/>
<path d="M377.107 274.185C365.595 274.185 351.734 267.761 336.816 255.266C316.495 238.266 296.565 212.06 280.707 181.428C256.705 135.05 246.798 87.4964 255.491 60.2726C258.388 51.1849 263.244 44.8392 269.861 41.4313C283.017 34.6939 301.537 40.4129 322.055 57.5698C342.376 74.57 362.306 100.775 378.164 131.407C402.205 177.786 412.112 225.339 403.38 252.563C400.483 261.651 395.627 267.996 389.01 271.404C385.447 273.284 381.453 274.185 377.107 274.185ZM281.842 40.4129C277.809 40.4129 274.05 41.2355 270.683 42.9982C264.457 46.171 259.915 52.2033 257.174 60.8601C248.599 87.6923 258.467 134.737 282.273 180.723C314.693 243.279 362.228 283.312 388.266 269.955C394.492 266.782 399.034 260.75 401.775 252.093C410.35 225.261 400.483 178.216 376.676 132.23C348.445 77.782 308.82 40.4129 281.842 40.4129Z" fill="black"/>
<path d="M377.107 274.186C365.595 274.186 351.734 267.762 336.816 255.266C316.495 238.266 296.565 212.061 280.707 181.429C256.705 135.05 246.798 87.4968 255.491 60.273C258.388 51.1853 263.244 44.8396 269.861 41.4317C278.671 36.8879 290.182 38.0238 303.143 44.6829C315.555 51.0678 328.985 62.3882 342.063 77.3907C342.376 77.7432 342.337 78.2916 341.985 78.605C341.632 78.9184 341.084 78.8792 340.771 78.5266C314.224 48.0516 287.363 34.4201 270.683 42.9986C264.457 46.1714 259.915 52.2037 257.174 60.8605C248.599 87.6927 258.467 134.737 282.273 180.724C310.465 235.132 350.129 272.541 377.068 272.541C381.101 272.541 384.86 271.718 388.227 269.955C394.453 266.782 398.995 260.75 401.736 252.093C410.311 225.261 400.443 178.217 376.637 132.23C369.55 118.52 361.562 105.633 352.987 93.9208C352.713 93.5291 352.792 92.9807 353.183 92.7065C353.575 92.4323 354.123 92.5107 354.397 92.9024C363.05 104.693 371.038 117.658 378.203 131.447C402.205 177.786 412.112 225.339 403.38 252.563C400.483 261.651 395.627 267.997 389.01 271.405C385.447 273.285 381.453 274.186 377.107 274.186Z" fill="black"/>
<path d="M328.767 190.34C334.889 187.16 333.712 172.752 326.137 158.16C318.562 143.568 307.459 134.318 301.336 137.499C295.214 140.679 296.392 155.087 303.966 169.679C311.541 184.27 322.645 193.521 328.767 190.34Z" fill="#B9FF66"/>
<path d="M326.088 191.848C319.353 191.848 309.956 183.152 303.182 170.03C297.544 159.141 295.234 147.938 297.309 141.474C298.053 139.203 299.267 137.597 300.95 136.735C307.607 133.327 319.001 142.61 326.91 157.848C332.549 168.737 334.859 179.94 332.783 186.404C332.039 188.676 330.826 190.282 329.142 191.143C328.202 191.613 327.184 191.848 326.088 191.848ZM304.004 137.714C303.182 137.714 302.399 137.871 301.733 138.223C300.441 138.889 299.501 140.143 298.914 141.984C296.996 148.016 299.227 158.749 304.67 169.247C311.875 183.152 322.721 192.514 328.32 189.616C329.612 188.95 330.552 187.696 331.139 185.855C333.058 179.784 330.787 169.09 325.383 158.592C319.04 146.41 309.956 137.714 304.004 137.714Z" fill="#B9FF66"/>
<path d="M371.156 259.575C361.054 259.575 348.915 253.934 335.838 243.005C318.061 228.121 300.598 205.166 286.737 178.373C265.711 137.792 257.057 96.1535 264.653 72.2983C267.198 64.3074 271.466 58.7452 277.301 55.729C290.692 48.8741 310.387 56.7866 331.374 77.4297C331.726 77.7823 331.726 78.2915 331.374 78.644C331.021 78.9966 330.512 78.9966 330.16 78.644C309.721 58.5493 290.731 50.7151 278.084 57.2567C272.68 60.0378 268.726 65.2475 266.298 72.8075C258.819 96.2318 267.433 137.361 288.264 177.59C312.893 225.183 347.545 257.851 371.116 257.851C374.64 257.851 377.89 257.107 380.866 255.619C386.27 252.837 390.224 247.628 392.652 240.068C400.13 216.643 391.516 175.514 370.686 135.285C364.382 123.142 357.334 111.744 349.738 101.442C349.464 101.05 349.542 100.501 349.933 100.227C350.325 99.953 350.873 100.031 351.147 100.423C358.822 110.843 365.909 122.281 372.252 134.502C393.278 175.083 401.932 216.722 394.336 240.577C391.79 248.568 387.522 254.13 381.688 257.146C378.478 258.752 374.954 259.575 371.156 259.575Z" fill="black"/>
<path d="M136.772 292.518C136.733 292.518 136.694 292.518 136.694 292.518L115.041 290.168C114.924 290.168 114.806 290.129 114.689 290.051C110.225 289.345 104.587 283.705 100.475 275.792C96.0899 267.449 94.7978 259.301 97.1863 255.463L97.2254 255.345L108.502 235.368C108.541 235.29 108.58 235.25 108.62 235.211L137.32 205.402C137.36 205.363 137.399 205.324 137.438 205.285L210.971 152.795L257.488 54.9855C257.605 54.7896 257.762 54.6329 257.997 54.5546C258.232 54.4763 258.467 54.4763 258.662 54.5938C259.093 54.7896 259.289 55.2988 259.093 55.7297C247.307 80.995 256.626 131.212 282.234 180.646C307.881 230.158 343.629 266.822 371.155 271.875C371.586 271.954 371.899 272.345 371.86 272.815C371.821 273.246 371.43 273.56 370.999 273.599L370.255 273.56C370.216 273.56 370.177 273.56 370.137 273.56L263.4 255.267L177.572 285.977C177.533 285.977 177.455 286.016 177.415 286.016L136.89 292.479C136.851 292.518 136.811 292.518 136.772 292.518ZM115.668 288.523L136.772 290.795L177.102 284.332L263.087 253.582C263.244 253.543 263.361 253.504 263.518 253.543L359.605 269.995C333.645 258.596 303.299 224.948 280.785 181.469C258.428 138.302 248.443 94.4698 253.925 66.7759L212.498 153.736C212.42 153.853 212.342 153.971 212.224 154.049L138.573 206.656L109.99 236.308L98.7133 256.285C98.7133 256.324 98.6742 256.363 98.6742 256.363C96.6381 259.536 98.0085 267.371 101.963 275.009C105.84 282.491 111.439 288.131 115.276 288.405C115.433 288.405 115.55 288.445 115.668 288.523Z" fill="black"/>
<path d="M211.831 153.069L258.309 55.3379H258.348C246.797 80.094 255.215 130.272 281.488 181.038C307.84 231.881 344.098 267.801 371.036 272.737L370.292 272.698L263.516 254.405L261.049 253.974C248.637 251.78 232.075 235.642 220.21 212.609C208.033 188.989 205.88 165.448 211.283 154.245L211.831 153.069Z" fill="white"/>
<path d="M371.037 273.599C371.037 273.599 370.998 273.599 371.037 273.599L370.254 273.559C370.215 273.559 370.175 273.559 370.136 273.559L263.36 255.267L260.893 254.836C247.776 252.525 231.135 235.72 219.428 213.04C206.154 187.266 205.488 164.312 210.5 153.892L211.088 152.717L257.565 55.0245C257.682 54.8287 257.839 54.672 258.074 54.5937C258.309 54.5153 258.544 54.5153 258.74 54.6328C259.17 54.8287 259.366 55.3379 259.17 55.7688C247.385 81.0341 256.703 131.251 282.311 180.685C307.958 230.197 343.706 266.861 371.233 271.914C371.663 271.993 371.976 272.384 371.937 272.854C371.82 273.246 371.467 273.599 371.037 273.599ZM253.845 66.7758L212.615 153.461L212.027 154.636C207.055 164.977 208.503 188.088 220.955 212.218C232.427 234.467 248.598 250.919 261.206 253.112L263.673 253.543L359.564 269.995C333.604 258.596 303.259 224.948 280.745 181.468C258.387 138.302 248.403 94.4697 253.845 66.7758Z" fill="black"/>
<path d="M135.597 292.401C135.558 292.401 135.519 292.401 135.519 292.401L115.001 290.207C114.884 290.207 114.766 290.168 114.649 290.09C110.185 289.385 104.547 283.744 100.436 275.832C96.0894 267.449 94.7973 259.301 97.1858 255.463L97.2249 255.345L108.502 235.368C108.737 234.937 109.246 234.82 109.676 235.055C110.107 235.29 110.224 235.799 109.99 236.23L98.7128 256.285C98.7128 256.324 98.6737 256.364 98.6737 256.364C96.6376 259.536 98.008 267.371 101.963 275.009C105.839 282.491 111.438 288.131 115.276 288.405C115.393 288.405 115.55 288.445 115.628 288.523L135.675 290.677C136.145 290.717 136.498 291.147 136.419 291.617C136.38 292.048 136.028 292.401 135.597 292.401Z" fill="black"/>
<path d="M136.967 291.538C130.311 291.068 120.992 281.628 114.218 268.584C107.053 254.757 105.369 240.459 109.754 235.367L98.0469 255.736L97.9686 255.893C95.7368 259.34 97.0289 267.292 101.218 275.4C105.33 283.391 111.125 288.953 115.197 289.266L115.079 289.345L136.967 291.538Z" fill="white"/>
<path d="M136.968 292.4C136.928 292.4 136.928 292.4 136.889 292.4C136.733 292.4 136.537 292.361 136.38 292.361L115.001 290.206C114.884 290.206 114.766 290.167 114.649 290.089C110.185 289.384 104.547 283.743 100.436 275.831C96.0894 267.448 94.7973 259.301 97.1858 255.462L97.2249 255.344L107.523 237.404C107.914 236.386 108.423 235.485 109.05 234.74C109.324 234.388 109.833 234.349 110.185 234.584C110.538 234.858 110.655 235.328 110.42 235.72L108.972 238.187C106.661 244.416 108.932 256.637 114.884 268.075C121.345 280.57 130.155 289.697 136.458 290.52L136.928 290.559C137.398 290.598 137.751 291.029 137.711 291.499C137.751 292.048 137.398 292.4 136.968 292.4ZM115.628 288.522L130.585 290.05C124.829 286.368 118.486 278.769 113.435 268.976C108.541 259.536 106.113 249.743 106.505 242.692L98.7128 256.284C98.7128 256.324 98.6737 256.363 98.6737 256.363C96.6376 259.536 98.008 267.37 101.963 275.008C105.839 282.49 111.438 288.13 115.276 288.405C115.393 288.405 115.55 288.444 115.628 288.522Z" fill="black"/>
<path d="M175.809 285.39L177.532 285.037C168.213 286.996 153.49 272.894 143.114 252.878C132.503 232.431 130.506 212.023 138.024 205.99L137.045 206.97L109.832 235.251C105.369 240.265 107.013 254.641 114.218 268.546C121.148 281.943 130.976 291.5 137.672 291.461L175.809 285.39Z" fill="black"/>
<path d="M137.633 292.362C130.507 292.362 120.601 282.765 113.435 268.977C106.152 254.875 104.312 240.147 109.167 234.702L135.871 206.969C136.341 206.342 136.889 205.794 137.477 205.324C137.829 205.05 138.338 205.089 138.651 205.402C138.965 205.755 138.965 206.264 138.651 206.577L137.124 208.183C131.682 215.469 134.383 234.115 143.898 252.486C154.157 272.306 168.488 285.899 177.258 284.254L177.376 284.214C177.846 284.136 178.276 284.41 178.394 284.88C178.472 285.35 178.198 285.781 177.728 285.899C177.689 285.899 177.65 285.899 177.611 285.938L176.005 286.251H175.966L137.829 292.323C137.751 292.323 137.672 292.362 137.633 292.362ZM133.6 211.826L110.46 235.877C106.152 240.735 108.11 254.914 115.002 268.193C121.736 281.198 131.251 290.599 137.633 290.638L171.307 285.272C162.223 282.06 151.024 269.956 142.371 253.308C134.148 237.444 130.977 221.306 133.6 211.826Z" fill="black"/>
<path d="M301.342 137.479C295.195 140.612 296.095 155.145 303.926 169.638C317.043 193.885 327.498 191.025 328.712 190.594C328.751 190.594 328.751 190.634 328.712 190.634L306.197 208.77C299.58 199.486 293.276 189.145 287.481 177.981C281.96 167.288 277.301 156.633 273.62 146.292L301.342 137.479Z" fill="black"/>
<path d="M306.197 209.632C306.158 209.632 306.119 209.632 306.08 209.632C305.845 209.593 305.649 209.475 305.492 209.279C298.718 199.761 292.414 189.341 286.737 178.413C281.294 167.915 276.596 157.221 272.837 146.645C272.758 146.41 272.758 146.175 272.876 145.979C272.993 145.783 273.15 145.627 273.385 145.548L301.107 136.735C301.538 136.617 302.007 136.813 302.164 137.244C302.321 137.675 302.164 138.145 301.773 138.341C300.441 139.007 299.462 140.338 298.875 142.297C296.956 148.447 299.306 159.336 304.748 169.325C317.552 192.984 327.419 190.281 328.476 189.89C328.868 189.733 329.338 189.929 329.534 190.281C329.729 190.634 329.651 191.143 329.338 191.417L306.745 209.436C306.589 209.554 306.393 209.632 306.197 209.632ZM274.755 146.841C278.475 157.065 283.017 167.406 288.264 177.59C293.746 188.166 299.854 198.233 306.393 207.517L325.931 191.77C321.468 191.574 313.049 188.245 303.182 170.03C297.465 159.493 295.116 148.369 297.191 141.67C297.465 140.809 297.779 140.064 298.17 139.359L274.755 146.841Z" fill="black"/>
<path d="M417.187 81.5964C435.087 72.1927 442.011 50.1149 432.651 32.2842C423.291 14.4535 401.193 7.62214 383.293 17.0258C365.393 26.4295 358.469 48.5073 367.829 66.338C377.189 84.1687 399.287 91.0001 417.187 81.5964Z" fill="black"/>
<path d="M383.568 41.2337C385.291 38.8835 387.836 37.4342 390.734 37.1208C392.926 36.8858 394.962 37.3558 396.881 38.5309C397.86 39.1185 398.721 39.8628 399.544 40.7637C400.131 39.7061 400.836 38.766 401.658 37.9826C403.263 36.4157 405.182 35.5148 407.335 35.2798C410.233 34.9664 413.052 35.8281 415.245 37.7475C417.398 39.6277 418.769 42.3697 419.121 45.4642C419.474 48.6371 418.612 51.6924 416.419 55.0611C414.462 58.0773 411.486 61.2109 408.04 64.893C406.866 66.1465 405.534 67.5566 404.164 69.0451C403.811 69.4368 403.302 69.711 402.754 69.7502C402.206 69.8286 401.697 69.6719 401.227 69.3585C399.544 68.1834 397.938 67.0866 396.529 66.1465C392.378 63.3262 388.776 60.8976 386.192 58.3906C383.294 55.6095 381.806 52.7892 381.454 49.6163C381.141 46.5218 381.885 43.5448 383.568 41.2337Z" fill="white"/>
<path d="M518.736 83.5905C531.84 70.4809 531.84 49.2261 518.736 36.1165C505.632 23.0069 484.386 23.0069 471.281 36.1165C458.177 49.2261 458.177 70.4809 471.281 83.5905C484.386 96.7001 505.632 96.7001 518.736 83.5905Z" fill="#B9FF66"/>
<path d="M495.002 94.2727C476.051 94.2727 460.585 78.8394 460.585 59.8414C460.585 40.8827 476.012 25.4102 495.002 25.4102C513.993 25.4102 529.42 40.8435 529.42 59.8414C529.42 78.8002 513.993 94.2727 495.002 94.2727ZM495.002 27.1337C476.991 27.1337 462.308 41.7836 462.308 59.8414C462.308 77.8601 476.952 92.5492 495.002 92.5492C513.014 92.5492 527.697 77.8993 527.697 59.8414C527.697 41.8228 513.053 27.1337 495.002 27.1337Z" fill="#B9FF66"/>
<path d="M504.086 63.1703C502.207 63.1703 500.562 64.0713 499.466 65.4814L488.15 61.0551C488.15 60.8984 488.189 60.7809 488.189 60.6242C488.189 60.35 488.15 60.0758 488.111 59.8016L499.701 54.4352C500.758 55.6495 502.324 56.4329 504.086 56.4721C507.297 56.4721 509.959 53.8476 509.959 50.5965C509.959 47.3453 507.336 44.6816 504.086 44.6816C500.875 44.6816 498.213 47.3061 498.213 50.5573C498.213 50.8315 498.252 51.1057 498.291 51.3799L486.701 56.7463C485.644 55.532 484.078 54.7486 482.316 54.7094C479.105 54.7094 476.442 57.3339 476.442 60.5851C476.442 63.8362 479.066 66.4999 482.316 66.4999C484.195 66.4999 485.84 65.5989 486.936 64.1888L498.252 68.6151C498.252 68.7718 498.213 68.8893 498.213 69.046C498.213 72.2972 500.836 74.9608 504.086 74.9608C507.297 74.9608 509.959 72.3364 509.959 69.0852C509.92 65.834 507.297 63.2095 504.086 63.1703Z" fill="black"/>
<path d="M504.531 189.993C519.897 179.322 523.758 158.283 513.154 142.999C502.549 127.715 481.496 123.975 466.129 134.645C450.763 145.315 446.902 166.355 457.506 181.639C468.111 196.923 489.164 200.663 504.531 189.993Z" fill="black"/>
<path d="M476.875 178.373L471.942 151.62C471.707 150.249 472.96 149.113 474.291 149.465L503.462 157.73C504.95 158.161 505.302 160.081 504.088 161.021L479.812 179.509C478.755 180.371 477.149 179.784 476.875 178.373Z" fill="white"/>
<path d="M484.999 299.581C503.976 290.339 511.916 267.552 502.735 248.685C493.554 229.818 470.727 222.015 451.751 231.257C432.775 240.498 424.834 263.285 434.016 282.152C443.197 301.019 466.023 308.822 484.999 299.581Z" fill="#B9FF66"/>
<path d="M468.182 304.348C464.109 304.348 459.959 303.721 455.926 302.35C446.059 299.06 438.071 292.166 433.451 282.843C428.831 273.56 428.126 263.023 431.454 253.151C438.345 232.822 460.507 221.736 480.907 228.513C490.774 231.803 498.762 238.697 503.382 248.02C508.002 257.304 508.707 267.841 505.379 277.712C499.819 294.007 484.509 304.348 468.182 304.348ZM468.573 228.278C452.95 228.278 438.306 238.149 433.02 253.739C429.849 263.179 430.514 273.246 434.939 282.099C439.363 290.991 446.999 297.611 456.435 300.744C475.934 307.207 497.117 296.631 503.695 277.202C506.867 267.762 506.201 257.695 501.777 248.843C497.352 239.951 489.717 233.331 480.281 230.197C476.404 228.865 472.45 228.278 468.573 228.278Z" fill="black"/>
<path d="M487.839 259.26C487.447 268.778 471.355 291.028 467.517 296.237C467.126 296.786 466.304 296.746 465.951 296.159C463.524 292.242 455.497 279.08 451.307 268.426C449.623 264.195 448.566 260.357 448.684 257.654C449.114 246.843 458.238 238.421 469.044 238.852C479.851 239.361 488.27 248.449 487.839 259.26Z" fill="black"/>
<path d="M474.594 264.825C478.096 261.322 478.096 255.643 474.594 252.14C471.092 248.637 465.415 248.637 461.913 252.14C458.412 255.643 458.412 261.322 461.913 264.825C465.415 268.328 471.092 268.328 474.594 264.825Z" fill="#B9FF66"/>
<defs>
<clipPath id="clip0_507_7">
<rect width="36" height="36" fill="white" transform="translate(235 427)"/>
</clipPath>
<clipPath id="clip1_507_7">
<rect width="70.3259" height="70.3259" fill="white" transform="translate(49.7285 313) rotate(45)"/>
</clipPath>
</defs>
</svg>
