<svg width="594" height="451" viewBox="0 0 594 451" fill="none" xmlns="http://www.w3.org/2000/svg">
<path d="M345.586 137.187C414.025 174.937 472.758 214.935 512.391 249.077C532.21 266.151 547.233 281.742 556.306 294.842C560.843 301.393 563.876 307.297 565.288 312.433C566.699 317.568 566.479 321.89 564.58 325.333C562.68 328.777 559.142 331.268 554.047 332.813C548.949 334.359 542.337 334.943 534.376 334.6C518.455 333.913 497.254 329.524 472.24 321.868C422.219 306.558 357.057 278.216 288.618 240.465C220.179 202.715 161.445 162.717 121.812 128.575C101.993 111.501 86.971 95.9098 77.8974 82.8102C73.36 76.2595 70.3264 70.3547 68.9146 65.2182C67.5035 60.0844 67.723 55.7628 69.6224 52.319C71.522 48.8752 75.0605 46.3836 80.1559 44.8385C85.2536 43.2927 91.8663 42.7087 99.8276 43.0521C115.748 43.739 136.949 48.1281 161.963 55.784C211.983 71.0937 277.146 99.4361 345.586 137.187Z" stroke="black"/>
<path d="M325.355 173.861C393.794 211.611 452.528 251.609 492.16 285.751C511.979 302.825 527.002 318.416 536.076 331.516C540.613 338.066 543.646 343.971 545.058 349.107C546.469 354.241 546.249 358.563 544.349 362.007C542.45 365.451 538.912 367.942 533.816 369.487C528.719 371.033 522.107 371.617 514.145 371.274C498.225 370.587 477.023 366.198 452.009 358.542C401.989 343.232 336.827 314.89 268.387 277.139C199.948 239.389 141.214 199.391 101.582 165.249C81.7626 148.175 66.7405 132.584 57.6669 119.484C53.1295 112.933 50.096 107.029 48.6841 101.892C47.273 96.7582 47.4926 92.4366 49.3919 88.9929C51.2915 85.5491 54.8301 83.0574 59.9254 81.5123C65.0232 79.9665 71.6359 79.3825 79.5971 79.726C95.5175 80.4128 116.719 84.8019 141.732 92.4578C191.753 107.768 256.916 136.11 325.355 173.861Z" stroke="black"/>
<path d="M305.127 210.534C373.566 248.285 432.299 288.283 471.932 322.425C491.751 339.498 506.774 355.09 515.847 368.19C520.385 374.74 523.417 380.645 524.829 385.781C526.24 390.915 526.02 395.237 524.121 398.681C522.221 402.125 518.683 404.616 513.588 406.161C508.49 407.707 501.878 408.291 493.917 407.948C477.997 407.261 456.795 402.871 431.781 395.215C381.76 379.906 316.598 351.564 248.159 313.813C179.72 276.062 120.986 236.065 81.3531 201.922C61.5341 184.849 46.512 169.257 37.4384 156.158C32.901 149.607 29.8674 143.702 28.4556 138.566C27.0445 133.432 27.2641 129.11 29.1634 125.667C31.063 122.223 34.6015 119.731 39.6969 118.186C44.7946 116.64 51.4073 116.056 59.3686 116.4C75.289 117.087 96.4902 121.476 121.504 129.132C171.524 144.441 236.687 172.784 305.127 210.534Z" stroke="black"/>
</svg>
